PathFileType	4	(X/Y/Z)	52_1_33_p1_0-300.trc
DataRate	CameraRate	NumFrames	NumMarkers	Units	OrigDataRate	OrigDataStartFrame	OrigNumFrames
48.0	48.0	6	27	m	48.0	188	301
Frame#	Time	RHip			RKnee			RAnkle			RBigToe			RSmallToe			RHeel			LHip			LKnee			LAnkle			LBigToe			LSmallToe			LHeel			Neck			Head			Nose			RShoulder			RElbow			RWrist			RThumb			RIndex			RPinky			LShoulder			LElbow			LWrist			LThumb			LIndex			LPinky			
		X1	Y1	Z1	X2	Y2	Z2	X3	Y3	Z3	X4	Y4	Z4	X5	Y5	Z5	X6	Y6	Z6	X7	Y7	Z7	X8	Y8	Z8	X9	Y9	Z9	X10	Y10	Z10	X11	Y11	Z11	X12	Y12	Z12	X13	Y13	Z13	X14	Y14	Z14	X15	Y15	Z15	X16	Y16	Z16	X17	Y17	Z17	X18	Y18	Z18	X19	Y19	Z19	X20	Y20	Z20	X21	Y21	Z21	X22	Y22	Z22	X23	Y23	Z23	X24	Y24	Z24	X25	Y25	Z25	X26	Y26	Z26	X27	Y27	Z27	
188	3.9166666666666665	0.19847915981032851	0.4953344794747745	0.46753984776865576	0.12466993775018526	0.6235586721405569	0.8987636953063177	0.03994390764187613	0.7447946596865791	1.264887848824667	0.000969776598741387	0.5898858055075273	1.3079379482041564	0.06722034092411538	0.6049609578395567	1.3206679084204525	0.00023707255082941424	0.8756393942212554	1.3302510757618833	0.01859043097688354	0.5238719361970637	0.44560276905072005	-0.08501151380176032	0.6707808297549069	0.8644037539569782	-0.15623257129164198	0.7829405384126346	1.2320976007150921	-0.14098708105820015	0.6144010494776705	1.2742824976112286	-0.20074988122912166	0.6405467710243195	1.2614350840189863	-0.14598828616994217	0.8289891627865525	1.28573140345071	0.24261724834438803	0.4239791384546504	-0.004946779942591575	0.3091801527250721	0.31330261317164104	-0.23418815584759847	0.29292666052810257	0.2811938897403485	-0.07370996179041117	0.34991128821138345	0.43761645515782327	0.05671328896961873	0.32288386289060506	0.3979929219640279	0.28806948534033616	0.2935709395590762	0.30120558505984746	0.09757372380321047	0.2581404029954899	0.3463727439672645	0.0025438820217440856	0.28031525423409165	0.2741350074574466	0.004403343995003206	0.2696188966619481	0.23116774041859506	0.029953947136595774	0.0704526724837708	0.41052016614625375	0.012675420505804674	-0.03062812227043908	0.4522215177898545	0.2552639135849157	-0.03957681082401456	0.4529340630408875	0.5067203157490622	-0.012738362165158109	0.40741796451415546	0.598535922341483	-0.023883472119676525	0.41655843748818955	0.650341643705834	-0.09109478013588981	0.4872257366700212	0.6393410022177245
189	3.9375	0.19840283369247172	0.49537446647474825	0.46754608208330756	0.12126827604978872	0.6214207592213913	0.893869069073312	0.03991678128006654	0.7447105091520573	1.2648433144130422	0.0010710418529382498	0.589647279210939	1.3076696747680583	0.06723888956337552	0.6047505400446133	1.320548598617636	0.00020953758871612995	0.8756312267464016	1.3302857377706472	0.013104004503363808	0.5380529314304221	0.44611202596840127	-0.08732999810249269	0.6711291454276711	0.8722525257507007	-0.15623886645728155	0.7830165963510475	1.2321074089924449	-0.14100920568385353	0.6144653762649779	1.274249278098179	-0.19890101638327487	0.6400630081520297	1.257730449971703	-0.14590993628053056	0.8291515690390089	1.2856905888342027	0.24265578619585484	0.42392001703178384	-0.004804859931996226	0.31259872732224236	0.3017414871164891	-0.23161765488651076	0.29286095981455257	0.28120854241763205	-0.07353494730810875	0.3499453964402229	0.4378287334998317	0.056492757632653906	0.3227702064894641	0.39862780405737674	0.2881507992218096	0.28990694892270796	0.2997776639235066	0.09685073237151873	0.25782243157787854	0.34489764389244604	0.0025046730235837237	0.27872870922021686	0.2947042518925123	0.003050075303281832	0.26732029126591156	0.22137407997188335	0.025676108316959597	0.0679851227790476	0.39841242517611014	0.01294346688451539	-0.032368030811504224	0.4546689839687989	0.2627159600650336	-0.03962577539030274	0.45307975927471417	0.5068629522847127	-0.012785328944193996	0.4076164833939042	0.5988076101008474	-0.0239585988162956	0.416655853069007	0.6505125417135854	-0.09307155508328184	0.47462357831660207	0.6368560594573629
190	3.9583333333333335	0.19827677057263537	0.4952063981117917	0.4676683366277851	0.12124957177306385	0.6216938675720607	0.8939161333149402	0.039953840816135976	0.7448072250537515	1.264932824412186	0.0012229497411965318	0.5907462269698713	1.3078578545658044	0.0673958675916998	0.6054993483571675	1.3205970807497713	0.00019861281117990125	0.8755046141055463	1.330495993315647	0.013075965446089903	0.537879142180813	0.44595351492828933	-0.08732600878182036	0.6712067713825258	0.8724251949447807	-0.1566506605886845	0.7859899825937249	1.2380586162524334	-0.1409777560525195	0.6144455947368066	1.2743151702139288	-0.20070762631804565	0.6406577069014995	1.2614540027035464	-0.14602085417167301	0.8288516864699175	1.285837309709203	0.242729313982829	0.42392404926672334	-0.00465815998724479	0.31557695602930297	0.2894386866331028	-0.2262867223133058	0.29282557788211505	0.2810919337686652	-0.07320989307085396	0.3492869445784566	0.43816062307578896	0.06045496022858813	0.32273509975951	0.3985541701581648	0.2881762264235925	0.2850566172640797	0.3117616392351664	0.09957100280112471	0.26421648323293645	0.3578750807936862	0.0037753125609014866	0.2773560518799653	0.294636092978833	0.008658343425161707	0.2647130055823644	0.22964197240965734	0.03577600070617442	0.06760781376176594	0.4003988694610777	0.01632447482925537	-0.0313426608403702	0.4545459606489874	0.25956141645855463	-0.03971464281690506	0.4530305873171074	0.5068799728371829	-0.00793233421734116	0.39566666802959094	0.5978500006891272	-0.02390765488406688	0.4166836860268795	0.6506103658022516	-0.0912384316230826	0.4869261199363209	0.6395364038661562
191	3.9791666666666665	0.19821703206759891	0.49514739405730274	0.4677067980723048	0.12120956391654182	0.6216722103236045	0.8940126028976132	0.04227546025685955	0.7605171428564684	1.2705773963280096	0.0032435742576962263	0.6047369868715786	1.31342016382071	0.06771148423684338	0.606833913954032	1.3206886409732632	0.00022058872849852176	0.8754713840998198	1.3303119948814095	0.018374908929481085	0.5238806539987657	0.4454507708058113	-0.08578166142431518	0.6708987940288695	0.8687223742121362	-0.1561695075410731	0.7827261900418371	1.2320857808701131	-0.14101247260642988	0.6148351461029857	1.2744714452890327	-0.20067781464049184	0.6406169660501956	1.2614519843940224	-0.14591874339908936	0.8278177840120547	1.2853858392062587	0.24274903189023947	0.42379852049481703	-0.0045222005029003955	0.3196641267132137	0.2775994724865254	-0.22661322647114876	0.2951386506474278	0.27063933551771624	-0.06532885848227336	0.3493177963752781	0.43809433082592875	0.06079697870652409	0.3185837469166629	0.3865673983890113	0.2904156674499102	0.28494402298698884	0.31167383229493745	0.09947568670235751	0.26395951190858874	0.3568407162055551	0.003735937253918667	0.2772077063399175	0.29652137540486445	0.012244115723472405	0.26364850392434397	0.2281686406558135	0.03729871204123797	0.06701813484135673	0.40095781419643906	0.019990546061308692	-0.03249696887523176	0.4546637789367878	0.2628048071454315	-0.04099811805869311	0.45316103210750475	0.5101723459044709	-0.00789538450322533	0.39564237096416754	0.5979220887829573	-0.024298328367343802	0.4187654847967149	0.6549076072276372	-0.0912290811029161	0.48703651377530105	0.639615742631134
192	4.0	0.19361952912241437	0.5094901038782261	0.46817520471850227	0.12066518959084566	0.6217717631931344	0.897592406963554	0.03990399696364474	0.7450308109725815	1.2649643381061175	0.0010055140448542673	0.5900061119218881	1.3079411318390073	0.0671893658230515	0.605334584498501	1.320767982524728	0.00011417473401014998	0.875686251110198	1.330884747531296	0.008737464978247284	0.5522365548354252	0.44302925778584606	-0.0891837932404575	0.6719568043025519	0.8764391635366617	-0.1586669620808728	0.7867035089675648	1.242333918898057	-0.14123083475558018	0.6149769582563657	1.2740636579384792	-0.20072246347949785	0.6403139927682594	1.2612753841374809	-0.14594606539912694	0.8289230241241886	1.2858356366510795	0.24194895169008368	0.4238408092492722	-0.0014209618340996581	0.3215842415148739	0.2656920489327745	-0.21499566941555756	0.2902723879979486	0.2591955022802796	-0.055315550461806876	0.3519090663759814	0.44148542796077755	0.06890442130956081	0.31803333181064547	0.4275768340272968	0.2922178914728269	0.28440221951957895	0.31213846150571334	0.10268745232742554	0.2772375323121208	0.4009061609032512	0.010768517853054379	0.27695552658746725	0.2975342032257314	0.013805874308396858	0.26288504425472753	0.2203653078799035	0.04362250559817597	0.06679081989890986	0.4011982219881644	0.02012224907993259	-0.032591925475530865	0.4548809890847116	0.26300168317438016	-0.04144209519309619	0.4535533344799458	0.510394527151146	-0.012886633507759404	0.40768377901328096	0.5989630353201317	-0.023890165780426124	0.4167936183316742	0.6505227665075625	-0.0918590389464583	0.48739540607538295	0.6431462906062421
193	4.020833333333333	0.19809920664736833	0.4953408287673048	0.46761998131906846	0.12066710494140491	0.621449577528668	0.8974143806484212	0.039869390562805446	0.7449420972793473	1.2648904237615026	0.001111960782502902	0.5897167845903938	1.3076863691737508	0.06716637517379256	0.6050400516759156	1.3206262628213508	5.162476458730044e-05	0.8757064891472406	1.3310290110228034	0.01421139590425903	0.5377791263891086	0.4422398700714187	-0.08751075629399993	0.6713046910482761	0.8725774005699736	-0.15872563828515485	0.7869129026636291	1.2424610149344026	-0.1411928705211032	0.6147809012321818	1.2740420864554887	-0.20065984081496027	0.6405681892728899	1.2613501967961707	-0.14621949970380338	0.8300824847461702	1.2864346630043095	0.245480090382192	0.4251160706101667	0.003148772209463203	0.3249686002636273	0.254325775197442	-0.2125784522283081	0.2901528744772564	0.259058997626973	-0.05515846496750184	0.3520890727131016	0.4414626259901918	0.06858230558301276	0.31382717726669535	0.4265356318283816	0.29141601011534324	0.28777992882866493	0.31479229002937403	0.10687907933573411	0.28768822227687485	0.42071906048140123	0.006509539983368073	0.27532809894657245	0.318659329297426	0.012928707553419766	0.28251410808412125	0.16070071078975076	0.052216076947481746	0.06923217649699924	0.41344679409352947	0.02020057086730896	-0.03259598670160263	0.4550030045756895	0.26312735913652124	-0.04213182370077457	0.4535605338985472	0.5139735596114383	-0.012866931151727967	0.407514887583939	0.5986782268483035	-0.02392252606727672	0.41682199474851606	0.6504138482735421	-0.0918398489208862	0.4873204362462603	0.643260116467631
